<svg id="Слой_1" xmlns="http://www.w3.org/2000/svg" viewBox="0 0 100 100"><style>.st0{fill:red}.st1{fill:#fff}</style><path class="st0" d="M50 90c-22.1 0-40-17.9-40-40s17.9-40 40-40 40 17.9 40 40-17.9 40-40 40z"/><path class="st1" d="M73.1 64.1C67.8 71.3 61 74.8 52.6 74.8c-4.6 0-8.7-1.1-12.3-3.2-3.7-2.2-6.6-5.2-8.7-9.1-2.1-3.9-3.2-8.1-3.2-12.5 0-6.8 2.3-12.6 6.9-17.4 4.6-4.8 10.3-7.2 17.2-7.2C61.2 25.4 68 29 73 36.1l5.8-3.9c-1.7-3.1-3.8-5.6-6.2-7.6-2.4-2-5.4-3.6-8.9-4.8-3.5-1.2-7.1-1.9-10.9-1.9-6 0-11.4 1.4-16.2 4.3-4.8 2.9-8.6 6.8-11.3 11.9-2.8 5-4.2 10.5-4.2 16.4 0 8.8 3 16.2 8.9 22.3 5.9 6.1 13.4 9.2 22.3 9.2 5.8 0 11-1.2 15.6-3.6 4.6-2.4 8.2-5.8 10.9-10.2L74 64.8l-.9-.7z"/><path class="st1" d="M52.6 41.2c1.4 0 2.6.2 3.6.7 1 .5 2.1 1.3 3.1 2.4l.6-.3 5-3c-1.3-2.1-3.1-3.7-5.2-4.8-2.1-1.1-4.5-1.7-7.1-1.7-2.9 0-5.5.7-7.8 2s-4.1 3.2-5.4 5.5c-1.3 2.3-1.9 4.9-1.9 7.7 0 4 1.3 7.5 4 10.5s6.3 4.5 11.1 4.5c5.2 0 9.3-2 12.1-6l-5.3-3.9c-1.7 2.2-4 3.3-7 3.3-2.4 0-4.4-.8-5.9-2.3-1.5-1.5-2.2-3.5-2.2-6s.8-4.6 2.3-6.2c1.4-1.6 3.5-2.4 6-2.4z"/></svg>