<?xml version="1.0" encoding="utf-8"?>
<!-- Generator: Adobe Illustrator 19.0.1, SVG Export Plug-In . SVG Version: 6.00 Build 0)  -->
<svg version="1.1" id="Слой_1" xmlns="http://www.w3.org/2000/svg" xmlns:xlink="http://www.w3.org/1999/xlink" x="0px" y="0px"
	 viewBox="0 0 100 100" style="enable-background:new 0 0 100 100;" xml:space="preserve">
<style type="text/css">
	.st0{fill:#FF0000;}
	.st1{fill:#FFFFFF;}
</style>
<path class="st0" d="M50,90L50,90c-22.1,0-40-17.9-40-40v0c0-22.1,17.9-40,40-40h0c22.1,0,40,17.9,40,40v0C90,72.1,72.1,90,50,90z"
	/>
<g>
	<path class="st1" d="M73.1,64.1C67.8,71.3,61,74.8,52.6,74.8c-4.6,0-8.7-1.1-12.3-3.2c-3.7-2.2-6.6-5.2-8.7-9.1
		c-2.1-3.9-3.2-8.1-3.2-12.5c0-6.8,2.3-12.6,6.9-17.4c4.6-4.8,10.3-7.2,17.2-7.2c8.7,0,15.5,3.6,20.5,10.7l5.8-3.9
		c-1.7-3.1-3.8-5.6-6.2-7.6c-2.4-2-5.4-3.6-8.9-4.8c-3.5-1.2-7.1-1.9-10.9-1.9c-6,0-11.4,1.4-16.2,4.3C31.8,25.1,28,29,25.3,34.1
		c-2.8,5-4.2,10.5-4.2,16.4c0,8.8,3,16.2,8.9,22.3c5.9,6.1,13.4,9.2,22.3,9.2c5.8,0,11-1.2,15.6-3.6c4.6-2.4,8.2-5.8,10.9-10.2
		L74,64.8L73.1,64.1z"/>
	<path class="st1" d="M52.6,41.2c1.4,0,2.6,0.2,3.6,0.7c1,0.5,2.1,1.3,3.1,2.4l0.6-0.3l5-3c-1.3-2.1-3.1-3.7-5.2-4.8
		c-2.1-1.1-4.5-1.7-7.1-1.7c-2.9,0-5.5,0.7-7.8,2c-2.3,1.3-4.1,3.2-5.4,5.5c-1.3,2.3-1.9,4.9-1.9,7.7c0,4,1.3,7.5,4,10.5
		c2.7,3,6.3,4.5,11.1,4.5c5.2,0,9.3-2,12.1-6l-5.3-3.9c-1.7,2.2-4,3.3-7,3.3c-2.4,0-4.4-0.8-5.9-2.3c-1.5-1.5-2.2-3.5-2.2-6
		c0-2.5,0.8-4.6,2.3-6.2C48,42,50.1,41.2,52.6,41.2z"/>
</g>
</svg>
