<?xml version="1.0" encoding="utf-8"?>
<!-- Generator: Adobe Illustrator 19.0.1, SVG Export Plug-In . SVG Version: 6.00 Build 0)  -->
<svg version="1.1" id="Слой_1" xmlns="http://www.w3.org/2000/svg" xmlns:xlink="http://www.w3.org/1999/xlink" x="0px" y="0px"
	 viewBox="0 0 100 100" style="enable-background:new 0 0 100 100;" xml:space="preserve">
<style type="text/css">
	.st0{fill:#FF0000;}
</style>
<g>
	<path class="st0" d="M64.3,87c-1.4,0-2.8,0-4.3,0c-0.9,0-1.7-0.4-2.6-0.6c-2.3-0.6-4.6-1.2-6.8-2.1c-0.9-0.3-1.9,0.1-2.7,0.7
		c-0.7,0.7-1.5,0.9-2.5,0.8c-1.1-0.1-2.1,0.1-3.1,0.5c-1.4,0.5-3,0.6-4.5,0.6c-2.4,0-4.7,0-7.1,0c-1.4,0-2.7,0-4-0.9
		c-0.3-0.2-0.7-0.3-1.1-0.3c-3,0-5-1.9-7.1-3.7c-0.4-0.3-0.6-0.8-0.7-1.2c-0.1-0.8-0.5-1.2-1.3-1.6c-1-0.5-2.6-3.7-2.5-4.8
		c0.1-0.4,0.1-0.9,0.2-1.3c0.5-1.3,0.1-2.3-1.1-3c-1.2-0.6-1.5-1.6-1.5-2.9c-0.1-2.3,0.6-4.5,0-6.8c-0.1-0.6-0.1-1.1-0.5-1.6
		c-1.8-2.2-1.6-4.5-0.3-6.8c0.4-0.6,0.4-1.2,0.4-1.9c0-2-0.4-3.8-1.2-5.7c-0.6-1.4,0.1-3,0.8-4.4c0.9-1.8,1.8-3.5,1-5.7
		c-0.9-2.4-0.1-4.8,2.2-6.2c1-0.7,1.4-1.5,1.1-2.6c-0.5-2.2,0.1-4.1,1.5-5.9c0.2-0.3,0.4-0.7,0.7-0.6c1.4,0.4,1.4-0.5,1.5-1.5
		c0.1-1.2,0.7-1.9,2-2.2c2.4-0.5,4.7-1,6.9-2.2c0.3-0.1,0.6-0.2,1-0.2c2.2-0.1,4.3-0.2,6.5-0.3c1.7-0.1,3.6,0.3,5.4,0.3
		c1.4,0,2.8,0,4.3-0.1c1.4-0.1,2.4,0.9,3.4,1.6c1.6,1.2,3.2,1,4.8,0.4c3.1-1,6.1-2.1,9.5-2.1c4.2,0,8.3,0.4,12.5,0.1
		c1.4-0.1,2.2,1,3.3,1.5c1.2,0.5,2.4,1.4,3.6,2.1c0.7,0.4,1.3,0.9,1.1,1.7c-0.4,1.6,0.7,2.5,1.6,3.4c1.1,1,1.8,2,1.2,3.6
		c-0.5,1.3,0,2.5,1.1,3.3c0.9,0.7,1.2,1.6,1.1,2.6c-0.1,1.2,0,2.5,0,3.7c0,1.4,0,2.8,1.1,4c0.5,0.5,0.4,1.2,0.3,1.8
		c-0.4,3.4-0.4,6.9,0.3,10.3c0.2,1.1-0.3,2.1-0.5,3.2c-0.3,1.8-0.3,3.7,0,5.5c0.3,1.7,0.1,3.3-0.9,4.9c-0.7,1.2-1.1,2.6-0.6,4.1
		c0.7,1.8-0.3,3.1-1.5,4.3c-0.8,0.7-1.1,1.4-0.9,2.4c0.4,2.1-0.5,3.7-1.8,5.1c-0.3,0.4-0.8,0.7-1,1.2c-0.7,1.7-1.9,2.2-3.7,3
		C74.2,86.6,69.3,86.9,64.3,87z M63.6,15.4c-1.8-0.4-3.6-0.6-5.3,0.2c-0.6,0.3-1.6,0.2-1.6,0.9c0,0.8,1,0.8,1.6,1.1
		c0.7,0.3,1.9,0.4,1.6,1.6c-0.3,1-1.3,0.6-2.1,0.7c-0.2,0-0.5,0-0.7-0.1c-1.2-0.9-2.8-1.1-4.2-1.7c-1.1-0.5-1.4-0.2-1.4,0.9
		c0,0.8,0.1,1.6-0.3,2.4c-0.9,1.6-0.9,1.6,0.7,2.5c1.3,0.7,2.5,1.7,3.8,2.4c0.7,0.4,1.1,1.2,0.5,1.9c-0.5,0.7-1.3,0.5-1.9,0.1
		c-0.2-0.1-0.4-0.4-0.7-0.5c-1.8-1.2-3.6-2.5-5.4-3.7c-0.2-0.2-0.5-0.3-0.8-0.1c-0.3,0.2-0.3,0.5-0.2,0.8c0.6,1.5,0.2,2.9-0.5,4.3
		c-0.5,1-1.4,2.3,0.2,3.4c2.3,1.6,4.2,3.7,6.5,5.2c0.3,0.2,0.6,0.5,0.8,0.8c0.5,0.6,0.6,1.3,0,1.9c-0.6,0.5-1.2,0.4-1.8-0.1
		c-0.2-0.2-0.4-0.4-0.6-0.6c-2.2-2-4.8-3.6-6.9-5.7c-0.2-0.2-0.5-0.4-0.7-0.1c-0.2,0.2-0.1,0.4,0,0.7c0.2,0.6,0.6,1.1,0.4,1.8
		c-0.7,1.8-0.4,3.6-0.7,5.5c-0.1,1,0.2,1.7,1,2.4c1.7,1.4,3.3,2.8,5,4.2c1.1,1,2.3,2,3.4,3c0.7,0.7,1,1.6,0.3,2.3
		c-0.7,0.8-1.3,0-1.9-0.5c-0.9-0.7-1.7-1.5-2.6-2.2c-1.6-1.3-3.1-2.6-4.7-3.9c-0.3-0.2-0.6-0.5-1-0.3c-0.4,0.2-0.3,0.6-0.4,1
		c0,0.9,0.1,1.7,0,2.6c-0.2,1.3,0.9,2.8-0.4,4c-0.2,0.2,0.2,0.6,0.4,0.8c3.4,3.3,7.4,6,11,9c0.7,0.6,1.3,1.3,0.7,2.1
		c-0.6,0.8-1.6,0.4-2.1-0.2c-2.2-2.3-5-3.7-7.2-6c-0.3-0.3-0.6-0.9-1.2-0.5c-0.4,0.3-0.3,0.8-0.2,1.2c0.4,1.5,0.4,3,0,4.5
		c-0.2,0.6-0.1,1.3,0.6,1.6c3.1,1.8,5.8,4.1,8.9,5.8c1.1,0.6,2,1.4,3.1,1.9c0.8,0.4,1.2,1.3,0.7,2.2c-0.6,1-1.3,0.2-1.9-0.2
		c-2.1-1.4-4.2-2.8-6.3-4.2c-0.6-0.4-1.1-1.2-1.8-1c-1,0.3-0.3,1.2-0.4,1.8c-0.4,2,0.1,2.8,2.1,3.5c2.6,0.8,5,2,7.3,3.3
		c0.8,0.4,1.5,0.5,2.1-0.3c0.8-1.2,2-1.9,3.2-2.6c2.2-1.3,4.1-2.9,6-4.5c0.7-0.6,1.2-1.4,1.3-2.3c0.1-0.6,0.3-1.3,1.1-1.2
		c0.9,0.1,1.1,0.8,1,1.6c-0.1,1.7-1.1,3-2.4,3.9c-3,1.8-5.6,4.2-8.7,5.9c-0.5,0.3-0.8,0.6-0.1,1c0.6,0.3,1.1,0.7,0.7,1.4
		c-0.5,0.7-1.3,0.8-1.9,0.3c-1.2-1-2.8-1-4.1-1.8c-0.9-0.6-2.1-0.9-3.1-1.4c-0.4-0.2-0.8-0.3-1.2,0.1c-0.4,0.4-0.2,0.9,0.1,1.3
		c0.5,0.7,1.2,1,2,1.4c1.7,0.8,3.6,0.8,5.3,1.5c1.8,0.8,3.6,0.5,5.4,0.8c0.7,0.1,1.3-0.2,0.8-1.1c-0.3-0.5-0.3-1,0.4-1.2
		c1.1-0.3,2-0.9,3-1.3c2.1-0.9,4.5-1.7,4.9-4.6c0.1-0.7,0.7-1.2,1.5-0.9c0.9,0.3,0.8,1.1,0.5,1.8c-0.2,0.5-0.7,0.9-0.7,1.3
		c0,1.8-1.3,2.5-2.5,2.9c-1.4,0.4-2.6,1.5-4.2,1.6c-0.6,0-1.2,0.4-1.1,1c0.1,0.6,0.8,0.4,1.2,0.4c1.4,0,2.7-0.8,4.2-0.8
		c2.6,0,5.1-0.1,7.4-1.4c0.9-0.5,1.6-0.9,1.7-2c0-0.7,0.3-1.1,1-1.4c1.6-0.6,2-1.3,1.7-3c-0.3-1.9,0.2-3.4,1.7-4.5
		c0.8-0.6,1.3-1.4,0.8-2.3c-0.8-1.5-0.5-2.8,0.2-4.2c0.5-1,1-2.2,1.5-3.2c0.3-0.6,0.3-1.2-0.2-1.7c-0.8-0.8-0.7-1.7-0.5-2.8
		c0.4-2.8,1.1-5.6,0.8-8.6c-0.2-2.3-0.8-4.7,0.1-7c0.3-0.7,0.1-1.5-0.4-2.2c-1.5-2.1-1.4-4.4-1-6.8c0.2-1.2,0.3-2.2-0.7-2.9
		c-1.5-1.1-1.8-2.6-1.5-4.3c0.3-1.5-0.2-2.5-1.3-3.4c-0.8-0.7-1.4-1.5-1.4-2.7c0-0.8-0.6-1.4-1.3-1.8c-0.7-0.4-1.5-0.9-2.2-1.3
		c-0.6-0.3-1.3-1-1.8-0.3c-0.5,0.7,0.6,0.7,0.9,1.2c0.1,0.1,0.2,0.2,0.3,0.3c0.5,0.6,0.6,1.3,0.2,2c-0.2,0.5-0.7,0.6-1.2,0.5
		c-0.9-0.2-0.8-0.9-0.9-1.6c-0.1-1.8-1-2.6-2.7-2.3c-1.2,0.2-2.4,0.3-3.4,0.9c-0.7,0.4-1.4,0.5-2.2,0.3c-0.8-0.2-1.7-0.1-2.5,0.1
		c-0.8,0.2-1.7,0.2-2.5,0.1c-0.4-0.1-0.9-0.3-0.9-0.8c0-0.5,0.4-0.7,0.9-0.8C62.3,15.7,63,16.1,63.6,15.4z M14,33.5
		c1.4,1.8,0.9,3.3,0.2,5.1c-0.8,2-0.9,4.1,1.3,5.7c2.5,1.9,4.5,4.3,7,6.2c0.7,0.6,1.1,1.3,1.1,2.2c0,0.4,0,0.9-0.5,1.1
		c-0.5,0.2-0.9,0-1.1-0.4c-1.9-2.7-5-4-7.2-6.4c-0.2-0.2-0.4-0.5-0.7-0.4c-0.4,0.1-0.4,0.5-0.4,0.8c0,1.4,0,2.8,0,4.1
		c0,0.6,0,1.3-0.5,1.7c-0.9,0.8-0.5,1.4,0.2,2c3,2.7,6.4,5,9.5,7.6c0.5,0.4,1.2,0.6,1.6,1.2c0.4,0.6,0.7,1.3,0.1,2
		c-0.6,0.6-1.4,0.4-1.9-0.1c-2.2-2.2-4.8-4-7.2-6c-0.4-0.4-0.8-1.3-1.4-0.8c-0.7,0.5-0.1,1.3,0.1,1.9c0.1,0.2,0.3,0.4,0.4,0.6
		c0.5,0.8,0.5,1.6,0,2.4c-1,1.4-0.8,2,0.6,2.9c3.8,2.3,7.3,5,11.3,7.1c1,0.5,1.5,2,1,2.5c-0.9,0.8-1.7,0-2.2-0.5
		c-2.1-1.8-4.8-2.8-6.9-4.7c-0.4-0.4-1.1-0.4-1,0.4c0.1,0.9-0.1,1.7-0.5,2.4c-0.2,0.3-0.1,0.7,0.2,0.9c0.8,0.5,1.5,1.2,2.4,1.5
		c2.6,0.8,5,1.9,7.4,3.2c1,0.5,1.8,0.5,2.3-0.7c0.2-0.6,0.7-0.9,1.2-1.2c0.6-0.3,1.3-0.6,1.8-1.1c2.6-2.3,6.3-3.5,7.7-7.2
		c0.2-0.5,0.8-0.7,1.3-0.5c0.6,0.2,0.7,0.8,0.5,1.3c-0.6,1.4-1,2.9-2.3,3.7c-3.1,1.9-5.7,4.5-9,6.2c-0.5,0.3-0.9,0.6-0.1,0.9
		c0.7,0.3,1.2,0.7,0.8,1.5c-0.5,0.8-1.3,0.7-1.9,0.2c-1.3-1-3-1-4.4-1.9c-0.8-0.5-1.7-0.8-2.5-1.3c-0.4-0.2-0.9-0.3-1.3,0.1
		c-0.4,0.5-0.1,0.9,0.2,1.3c0.5,0.6,1.1,0.9,1.7,1.2c1.7,1,3.7,0.8,5.4,1.6c1.6,0.8,3.3,0.5,5,0.8c0.6,0.1,1.4-0.1,0.9-1.2
		c-0.2-0.5-0.1-1,0.4-1.2c1.7-0.6,3.2-1.4,4.7-2.2c1.5-0.8,3.2-1.4,3.1-3.7c0-0.5,0.2-1.1,0.8-1.2c0.6,0,0.8,0.6,1,1
		c0.5,1.4-0.1,3.1-1.6,4.2c-1.7,1.3-3.6,1.9-5.6,2.6c-0.6,0.2-1.4,0.3-1.3,1c0.1,0.9,1,0.6,1.7,0.5c0.5-0.1,1-0.2,1.5-0.4
		c1.2-0.4,2.5-0.7,3.8-0.6c1.7,0.1,3.4-0.1,4.9-1.2c0.4-0.3,1.1-0.4,1-1.2c-0.1-0.8-0.2-1.6-1.1-1.9c-0.6-0.2-1-0.5-1.3-1
		c-1-1.8-1.7-3.6-1.3-5.7c0.2-1.1-0.2-1.9-1.1-2.5c-1.8-1.4-2.4-4-1.6-6.2c0.6-1.9,0.6-3.8-0.9-5.3c-1.4-1.5-1.7-4.1-0.7-5.9
		c1.2-2.1,1.2-4.5,0.3-6.5c-0.8-1.8-0.7-3.5-0.8-5.3c0-0.8,0.2-1.4,1.1-1.5c0.8-0.1,1.1-0.6,1.1-1.4c0-1.7,0.1-3.3-0.3-5
		c-0.3-1.4,0.4-2.7,0.6-4c0.1-0.4,0.4-0.7,0.8-0.7c1.6-0.1,1.9-1.3,1.7-2.5c-0.3-1.8-0.3-3.4,0.9-5c0.6-0.8,0.7-1.7-0.6-2.2
		c-0.7-0.3-0.9-0.9-0.7-1.5c0.3-1.4-0.4-1.5-1.5-1.4c-0.6,0.1-1.2,0-1.7,0.2c-2.9,1.1-5.9,1-8.9,1.2c-0.7,0-1.8,0.2-1.9-0.8
		c-0.1-1.1,1-0.9,1.7-0.9c0,0,0.1,0,0.1,0c0.3-0.1,0.9,0.1,0.9-0.4c0-0.5-0.5-0.5-0.9-0.5c-1.6,0-3.2-0.1-4.6,0.7
		c-0.5,0.3-1.6,0-1.6,0.8c0,0.7,1,0.7,1.6,1c0.7,0.4,2.1,0.5,1.6,1.7c-0.4,1.1-1.6,0.6-2.5,0.5c-0.1,0-0.2,0-0.3-0.1
		c-1.3-1.2-3-1.1-4.5-1.7c-0.9-0.4-1.2,0-1.3,0.9c-0.1,0.9,0.1,1.9-0.3,2.8c-0.4,0.8,0,1.2,0.5,1.7c1.3,1.1,2.8,1.9,4.3,2.8
		c0.7,0.4,1.4,1,0.8,1.9c-0.6,0.9-1.5,0.6-2.2,0.1c-1.8-1.5-3.8-2.5-5.6-3.9c-0.3-0.3-0.6-0.7-1.1-0.5c-0.5,0.3-0.3,0.8-0.2,1.2
		c0.3,1.3,0.4,2.6-0.4,3.7c-1.8,2.5-0.9,2.6,0.7,4.2c1.9,2,4.4,3.1,6.3,5.1c0.7,0.7,1,1.5,0.3,2.3c-0.7,0.8-1.6,0.4-2.2-0.3
		C19.8,37.4,16.7,35.8,14,33.5z"/>
	<path class="st0" d="M71.7,49.4c0-1.7,0.1-3.4,0-5.1c-0.2-4.7,1.5-8.9,3.6-13c0.4-0.7,0.9-1.3,1.5-1.9c1.5-1.5,2.5-1.5,3.9,0.1
		c1.1,1.3,2,2.8,2.6,4.5c1.8,5.1,2.3,10.5,2.6,15.8c0.1,1.9-0.1,3.8-0.5,5.6c-0.4,2-0.7,4-1,6c-0.5,3-1.7,5.9-3.9,8.1
		c-1.6,1.5-2.4,1.5-3.9-0.2c-1.3-1.4-2-3.1-2.8-4.9c-0.8-1.9-1-3.9-1.9-5.8c-0.2-0.4-0.2-0.9-0.2-1.4C71.7,54.7,71.7,52,71.7,49.4
		C71.7,49.4,71.7,49.4,71.7,49.4z M73.4,49.5c0,0.7,0.1,1.4,0,2.1c-0.5,3.6,0.5,7,1.6,10.3c0.2,0.7,0.5,1.3,0.9,1.9
		c1.1,1.8,2.5,2,4.1,0.6c0.5-0.5,0.8-1,1.2-1.6c2.1-3.8,2-8,2.5-12.1c0.4-3.5-0.5-7-1-10.4c-0.4-2.4-1.3-4.9-3.4-6.6
		c-0.9-0.7-1.5-0.8-2.3,0.1c-1.1,1.3-2.2,2.6-2.1,4.5c0,0.4-0.1,0.9-0.3,1.2c-1.2,1.1-1.1,2.5-1,4C73.4,45.5,73.4,47.5,73.4,49.5z"
		/>
	<path class="st0" d="M68.6,49.8c0.1,1.1-0.5,1.7-1.8,1.6c-1.1-0.1-1.8,0.4-2.6,1.1c-2.9,2.5-5.8,5-8.8,7.4c-0.7,0.5-1.5,0.7-2.2,0
		c-0.6-0.7-0.2-1.5,0.3-2c0.5-0.5,1.1-1,1.6-1.3c3.3-2.1,6.1-4.8,9.2-7.2c0.6-0.4,1.1-0.9,1.8-1.2C67.7,47.3,68.6,47.9,68.6,49.8z"
		/>
	<path class="st0" d="M70.5,17.8c1.8,0.2,2.1,1.7,3,2.6c0.4,0.4,0.6,1.2,0.9,1.8c0.2,0.4,0.2,0.7,0,1.1c-0.3,0.4-0.8,0.3-1.2,0.2
		c-0.8-0.3-1.3-0.9-1.6-1.7c-0.3-0.8-0.8-0.8-1.7-0.8c-2.4,0.2-4.3,1.8-6.8,1.6c-0.3,0-0.7,0.2-0.9,0.4c-0.8,0.7-1.9,0.9-2.9,0.9
		c-0.9,0.1-2.1,0.3-2.2-1.1c-0.1-1.4,1.2-0.9,2-1.2c2-0.8,4.1-0.9,6.1-1.8C66.8,18.9,69.1,19.2,70.5,17.8z"/>
	<path class="st0" d="M56.4,72.2c-0.8,0-1.3-0.3-1.6-0.9c-0.3-0.7,0-1.2,0.6-1.6c3.5-2.3,6.7-5,10-7.7c0.6-0.5,1.2-1.1,1.7-1.7
		c0.6-0.7,1.4-0.9,2.1-0.3c0.7,0.6,0.3,1.3-0.1,1.9c-0.5,0.7-1.2,1.3-1.9,1.8c-3.4,2.2-6.2,5.1-9.3,7.6C57.4,71.7,57,72.2,56.4,72.2
		z"/>
	<path class="st0" d="M71.4,28.6c0,0.6-0.2,1.1-0.8,1.3c-0.7,0.2-1.2-0.2-1.3-0.8c-0.5-1.5-1.3-1.4-2.5-0.8c-2,1.1-4.1,2.2-6.1,3.2
		c-1.7,0.9-3.5,1.7-5.3,2.6c-0.4,0.2-1,0.2-1.3-0.2c-0.4-0.5,0-0.9,0.3-1.3c1-1.4,2.7-1.7,4.1-2.4c3-1.4,5.8-3,8.6-4.7
		c1.7-1,2.1-1,3.1,0.7C70.5,27.2,71.4,27.7,71.4,28.6z"/>
	<path class="st0" d="M54,47.1c-0.8-0.2-1.2-0.8-1-1.7c0.1-0.5,0.4-1,0.9-1.3c4-2.2,7.4-5.3,11.1-7.9c1.3-0.9,4,0.2,4.3,1.8
		c0.1,0.4,0.1,0.9-0.3,1.2c-0.5,0.4-1.1,0.4-1.5,0.1c-1.7-1.5-2.9-0.4-4.2,0.7c-2.8,2.3-5.8,4.2-8.4,6.7
		C54.7,46.9,54.5,47.1,54,47.1z"/>
	<path class="st0" d="M37,47.8c0.8,0.1,1.5,0.4,1.6,1.4c0.1,0.9-0.2,2.1-1.1,2.1c-3.5-0.2-5,2.8-7.2,4.5c-1.7,1.3-3.3,2.8-5.1,4.1
		c-0.7,0.5-1.6,1.1-2.2,0.1c-0.6-0.9-0.2-1.7,0.7-2.3c4-2.8,7.9-5.9,11.6-9.2C35.7,48.1,36.2,47.8,37,47.8z"/>
	<path class="st0" d="M28.6,23.8c-0.3,0-0.6,0-0.8-0.1c-0.6-0.1-1.1-0.4-1-1.1c0-0.6,0.5-0.9,1-1c3.6-0.5,7-2.2,10.6-2.8
		c0.2,0,0.5-0.1,0.7-0.2c2.2-1.1,2.7-0.9,4,1.3c0.3,0.6,0.8,1.1,1.1,1.7c0.3,0.7,0.3,1.3-0.4,1.7c-0.8,0.5-1.2,0-1.6-0.7
		c-0.2-0.4-0.5-0.8-0.7-1.2c-0.4-0.8-1-0.7-1.8-0.6c-2.1,0.2-3.9,1.6-6.1,1.6c-1.4,0-2.4,1.4-3.8,1.2C29.3,23.7,28.9,23.8,28.6,23.8
		z"/>
	<path class="st0" d="M26.4,72.2c-0.6,0-1.1-0.2-1.3-0.8c-0.2-0.7-0.1-1.3,0.5-1.7c3.7-2.6,7.1-5.6,10.6-8.5
		c0.4-0.3,0.8-0.7,1.1-1.1c0.5-0.5,1-0.8,1.6-0.4c0.6,0.4,0.6,1.1,0.4,1.7c-0.3,0.8-1,1.4-1.6,1.9c-1.4,1.1-3,2.2-4.4,3.4
		c-1.9,1.5-3.7,3.1-5.4,4.8C27.5,71.8,27.1,72.2,26.4,72.2z"/>
	<path class="st0" d="M39.4,38.2c0,1.1-1.1,1.8-2,1c-1.4-1.1-2.2-0.6-3.4,0.3c-3,2.2-6,4.5-8.9,6.8c-0.7,0.5-1.5,1.3-2.2,0.4
		c-0.7-0.9-0.1-1.7,0.7-2.3c3.3-2.2,6.5-4.5,9.6-7c0.1-0.1,0.3-0.2,0.5-0.3c2.4-2,2.5-2,4.9-0.4C39.2,37.1,39.4,37.6,39.4,38.2z"/>
	<path class="st0" d="M24.7,34.6c-0.7-0.1-0.9-0.6-0.7-1.2c0.2-0.8,0.8-1.3,1.5-1.6c2.6-1.3,5.3-2.6,7.9-3.9
		c1.3-0.6,2.5-1.4,3.6-2.2c1.1-0.8,1.9-0.7,2.7,0.2c0.7,0.8,1.1,1.8,1.6,2.7c0.2,0.4,0.1,0.8-0.2,1.1c-0.4,0.3-0.9,0.4-1.3,0
		c-0.1-0.1-0.1-0.1-0.2-0.2c-1.9-1.7-1.9-1.7-4.2-0.4c-2.9,1.5-5.8,3-8.8,4.4C25.9,33.8,25.5,34.5,24.7,34.6z"/>
</g>
</svg>
