<?xml version="1.0" encoding="utf-8"?>
<!-- Generator: Adobe Illustrator 19.0.1, SVG Export Plug-In . SVG Version: 6.00 Build 0)  -->
<svg version="1.1"
	 id="Слой_1" xmlns:svg="http://www.w3.org/2000/svg" xmlns:sodipodi="http://sodipodi.sourceforge.net/DTD/sodipodi-0.dtd" xmlns:dc="http://purl.org/dc/elements/1.1/" xmlns:rdf="http://www.w3.org/1999/02/22-rdf-syntax-ns#" xmlns:inkscape="http://www.inkscape.org/namespaces/inkscape" xmlns:cc="http://creativecommons.org/ns#" sodipodi:docname="Р›РѕРіРѕС‚РёРї 1.5.1-01.svg" inkscape:version="0.48.4 r9939"
	 xmlns="http://www.w3.org/2000/svg" xmlns:xlink="http://www.w3.org/1999/xlink" x="0px" y="0px" viewBox="-427 231 100 100"
	 style="enable-background:new -427 231 100 100;" xml:space="preserve">
<style type="text/css">
	.st0{opacity:0.6;}
	.st1{fill:#993366;}
</style>
<g id="Логотип_1_">
	<g id="Облако">
		<g id="Фон_1_" class="st0">
			<path id="Фон" class="st1" d="M-338.6,271.6c0,1.4-0.3,2.7-0.9,3.9c0,0.1-0.1,0.1-0.1,0.2c-0.4,0.8-1,1.5-1.6,2.2l-0.5,0.5
				c-0.1,0.1-0.2,0.2-0.3,0.2l-0.3,0.2l-0.3,0.2l-0.1,0.1l-0.1,0.1c-0.2,0.1-0.4,0.2-0.6,0.4c-0.8,0.4-1.6,0.8-2.5,1
				c-0.8,0.2-1.7,0.3-2.5,0.3c-0.4,0-0.8,0-1.2-0.1c-0.2,0-0.4-0.1-0.6-0.1c-0.2,0-0.4-0.1-0.5-0.1c-0.3-0.1-0.7-0.2-1-0.3
				c-0.3-0.1-0.6-0.2-0.9-0.3c-0.3-0.1-0.5-0.2-0.7-0.4c-0.2-0.1-0.4-0.2-0.6-0.4c-0.1-0.1-0.2-0.1-0.3-0.2
				c-0.1-0.1-0.2-0.1-0.2-0.2c-0.1-0.1-0.3-0.2-0.3-0.2c-0.2-0.1-0.3-0.2-0.3-0.2s0.1,0.1,0.2,0.3c0.1,0.1,0.2,0.2,0.3,0.3
				c0.1,0.1,0.1,0.1,0.2,0.2c0.1,0.1,0.2,0.1,0.2,0.2c0.2,0.1,0.3,0.3,0.5,0.5c0.2,0.2,0.5,0.3,0.7,0.5c0.3,0.2,0.6,0.3,0.9,0.5
				c0.2,0.1,0.3,0.2,0.5,0.2c0.2,0.1,0.3,0.1,0.5,0.2c0.2,0.1,0.4,0.1,0.6,0.2c0.2,0.1,0.4,0.1,0.6,0.2c0.3,0.1,0.6,0.1,1,0.2
				c-0.2,4.1-3.6,7.3-7.8,7.3c-1.3,0-2.6-0.3-3.8-1l-0.8-0.4l-0.3,0.8c-1.1,2.7-3.6,4.4-6.5,4.4c-0.8,0-1.6-0.1-2.4-0.4l-0.6-0.2
				l-0.4,0.5c-1.1,1.6-3,2.5-4.9,2.5c-1.2,0-2.3-0.3-3.3-1l-0.4-0.3l-0.4,0.3c-0.8,0.5-1.8,0.8-2.7,0.8c-0.2,0-0.4-0.1-0.7-0.1
				c-0.4-0.1-0.8-0.3-1.2-0.5c-0.4-0.2-0.8-0.5-1.2-0.7c-0.1-0.1-0.2-0.1-0.3-0.2l-0.1-0.1l-0.1-0.1l-0.3-0.3l-0.1-0.2l-0.1-0.1
				l-0.2-0.3l-0.2-0.3c-0.1-0.1-0.1-0.2-0.2-0.3c-0.1-0.1-0.1-0.2-0.2-0.3c-0.2-0.4-0.3-0.9-0.4-1.3c-0.1-0.2-0.1-0.4-0.1-0.7
				c0-0.2,0-0.4,0-0.6c0-0.2,0-0.4,0-0.6c0-0.1,0-0.2,0-0.3c0-0.1,0-0.2,0.1-0.3c0-0.1,0-0.2,0.1-0.3c0-0.1,0.1-0.2,0.1-0.3
				c0-0.1,0-0.2,0.1-0.2c0-0.1,0.1-0.2,0.1-0.2c0.1-0.3,0.2-0.6,0.3-0.8c0.1-0.2,0.2-0.4,0.3-0.5c0.1-0.1,0.1-0.2,0.1-0.2
				s-0.1,0-0.2,0.1c-0.1,0-0.1,0.1-0.2,0.1c-0.1,0.1-0.2,0.1-0.3,0.2c-0.1,0.1-0.2,0.2-0.3,0.3c-0.1,0.1-0.2,0.2-0.3,0.4
				c-0.1,0.1-0.2,0.3-0.3,0.5c-0.1,0.1-0.1,0.2-0.2,0.3c0,0.1-0.1,0.2-0.1,0.3c0,0.1-0.1,0.2-0.1,0.3c0,0.1-0.1,0.2-0.1,0.3
				c-0.1,0.2-0.1,0.5-0.2,0.7c0,0.1,0,0.3-0.1,0.4c0,0.1,0,0.3,0,0.4c0,0.1,0,0.1,0,0.2c-0.5-0.1-1-0.3-1.4-0.5l-0.7-0.4l-0.4,0.8
				c-1.2,2.6-3.9,4.3-6.8,4.3c-3.7,0-6.9-2.7-7.4-6.4l-0.1-0.4l-0.3-0.2c-0.9-0.5-1.7-1.3-2.2-2.2c0-0.1-0.1-0.2-0.1-0.3
				c-0.1-0.3-0.2-0.6-0.3-1c0-0.2-0.1-0.3-0.1-0.5c0-0.2,0-0.4-0.1-0.5c0-0.2,0-0.4,0-0.5l0-0.1l0,0v0l0-0.1l0-0.3
				c0-0.2,0-0.3,0.1-0.5c0-0.1,0-0.2,0-0.3c0-0.1,0-0.2,0.1-0.3c0-0.2,0.1-0.3,0.1-0.5c0.1-0.2,0.1-0.3,0.2-0.5
				c0.1-0.3,0.3-0.6,0.4-0.9c0.2-0.3,0.3-0.6,0.5-0.8c0.2-0.2,0.3-0.5,0.5-0.7c0.1-0.1,0.2-0.2,0.2-0.3c0.1-0.1,0.1-0.2,0.2-0.2
				c0.1-0.1,0.2-0.2,0.3-0.3c0.1-0.1,0.1-0.1,0.1-0.1s-0.1,0-0.2,0c-0.1,0-0.3,0.1-0.4,0.1c-0.1,0-0.2,0.1-0.3,0.1
				c-0.1,0-0.2,0.1-0.3,0.2c-0.2,0.1-0.5,0.3-0.8,0.5c-0.1,0.1-0.3,0.2-0.4,0.3c-0.1,0.1-0.3,0.3-0.4,0.4c-0.2,0.3-0.5,0.6-0.7,1
				c-0.2,0.4-0.4,0.8-0.5,1.2c0,0.1,0,0.2-0.1,0.2c-2.7-0.8-4.6-3.3-4.6-6.2c0-3.4,2.6-6.2,6-6.4l1.2-0.1l-0.5-1.1
				c-0.5-1.1-0.8-2.2-0.8-3.4c0-4.3,3.5-7.8,7.8-7.8c2,0,3.8,0.7,5.3,2.1l0.6,0.6l0.5-0.7c0.9-1.2,2.4-2,3.9-2
				c0,0.1,0.1,0.2,0.1,0.3c0,0.1,0.1,0.2,0.1,0.2c0,0.1,0.1,0.1,0.1,0.2c0.1,0.1,0.1,0.3,0.2,0.4c0.1,0.3,0.3,0.5,0.4,0.7
				c0.3,0.4,0.6,0.8,0.8,1.1c0.2,0.3,0.5,0.4,0.6,0.6c0.1,0.1,0.2,0.2,0.2,0.2c0,0-0.1-0.1-0.2-0.2c-0.1-0.2-0.3-0.4-0.4-0.7
				c-0.2-0.3-0.4-0.7-0.5-1.1c-0.1-0.2-0.2-0.5-0.2-0.7c-0.1-0.3-0.2-0.5-0.2-0.8c0,0,0,0,0,0l0,0l-0.1-0.9c0,0,0-0.1,0-0.1
				c0-0.3,0-0.6,0-0.8c0.1-0.7,0.2-1.3,0.4-2c0.2-0.7,0.6-1.3,1-1.9c0.1-0.1,0.2-0.3,0.3-0.4c0.1-0.1,0.2-0.3,0.4-0.4l0.1-0.1l0-0.1
				l0,0l0,0l0.2-0.2l0.2-0.2l0.1-0.1c0,0,0.1-0.1,0.1-0.1l0.4-0.3l0.5-0.3c0.2-0.1,0.3-0.2,0.5-0.3l0.2-0.1c0.1,0,0.2-0.1,0.3-0.1
				c0.3-0.1,0.6-0.2,1-0.3c0.4-0.1,0.8-0.1,1.2-0.1c2.5,0,4.8,1.3,6.1,3.5l0.4,0.7l0.7-0.4c0.8-0.5,1.7-0.7,2.6-0.7
				c1.2,0,2.3,0.4,3.2,1.2l0.7,0.6l0.5-0.8c0.9-1.5,2.5-2.4,4.3-2.4c2.2,0,4.1,1.4,4.8,3.5c-0.3,0.2-0.6,0.3-0.8,0.5
				c-0.6,0.4-1.1,0.8-1.5,1.3c-0.4,0.4-0.7,0.9-1,1.3c-0.1,0.2-0.2,0.4-0.3,0.6c0,0.1-0.1,0.2-0.1,0.3c0,0.1-0.1,0.2-0.1,0.3
				c-0.1,0.3-0.2,0.6-0.3,0.7c0,0.2-0.1,0.3-0.1,0.3s0.1-0.1,0.2-0.2c0-0.1,0.1-0.2,0.2-0.3c0.1-0.1,0.2-0.2,0.3-0.4
				c0-0.1,0.1-0.1,0.2-0.2c0.1-0.1,0.1-0.1,0.2-0.2s0.1-0.2,0.2-0.2c0.1-0.1,0.1-0.2,0.2-0.2c0.1-0.1,0.2-0.2,0.2-0.2
				c0.1-0.1,0.2-0.2,0.3-0.2c0.2-0.2,0.4-0.3,0.6-0.5c0.4-0.3,0.9-0.7,1.5-0.9c0.5-0.3,1.1-0.5,1.8-0.7c0.6-0.2,1.3-0.3,2-0.3l0.3,0
				l0.1,0l0.1,0l0,0c0.2,0,0.4,0,0.6,0l0.3,0l0.2,0l0.5,0.1c0.7,0.2,1.3,0.3,2,0.6c0.3,0.1,0.6,0.3,0.9,0.5c0.1,0.1,0.3,0.2,0.4,0.3
				c0.1,0.1,0.3,0.2,0.4,0.3c0.2,0.2,0.5,0.4,0.7,0.6c0.1,0.1,0.2,0.2,0.3,0.3c0.1,0.1,0.2,0.2,0.3,0.4c0.1,0.1,0.1,0.1,0.2,0.2
				c0.8,1.3,1.3,2.8,1.3,4.4c0,0.5,0,1-0.1,1.5l-0.2,0.9l0.9,0C-342.5,262.5-338.6,266.6-338.6,271.6z"/>
			<circle id="circle14" class="st1" cx="-356.2" cy="300" r="3.5"/>
			<circle id="circle16" class="st1" cx="-349.2" cy="307.8" r="2.2"/>
			<circle id="circle18" class="st1" cx="-344.4" cy="315.6" r="1.2"/>
		</g>
		<path id="Контур" class="st1" d="M-346.6,260.8c0-0.3,0-0.6,0-1c0-5.3-4.3-9.6-9.6-9.6c-0.9,0-1.8,0.1-2.7,0.4
			c-1-2.5-3.4-4.2-6.1-4.2c-2,0-3.9,0.9-5.1,2.4c-1.1-0.7-2.3-1-3.6-1c-1,0-1.9,0.2-2.8,0.6c-1.6-2.3-4.2-3.6-7-3.6
			c-4.7,0-8.6,3.9-8.6,8.6c0,0.1,0,0.2,0,0.3c-1.5,0.2-2.8,0.8-3.9,1.9c-1.6-1.3-3.7-2-5.7-2c-5.2,0-9.4,4.2-9.4,9.4
			c0,1.1,0.2,2.1,0.5,3.1c-3.7,0.8-6.4,4-6.4,7.9c0,3.6,2.4,6.8,5.9,7.7c0,0.1,0,0.2,0,0.3c0,2.5,1.3,4.9,3.4,6.3
			c0.8,4.2,4.6,7.4,8.9,7.4c3.2,0,6.2-1.7,7.8-4.5c0.4,0.2,0.8,0.3,1.3,0.3c0.7,3.1,3.5,5.4,6.7,5.4c1.1,0,2.2-0.3,3.1-0.7
			c1.1,0.6,2.4,1,3.7,1c2.3,0,4.4-1,5.9-2.7c0.8,0.2,1.6,0.3,2.4,0.3c3.3,0,6.2-1.8,7.6-4.6c1.2,0.5,2.5,0.8,3.8,0.8
			c4.9,0,8.8-3.6,9.3-8.4c5.7-0.4,10.2-5.1,10.2-10.9C-337,266-341.1,261.4-346.6,260.8z M-339.5,275.7c-0.4,0.8-1,1.5-1.6,2.2
			l-0.5,0.5c-0.1,0.1-0.2,0.2-0.3,0.2l-0.3,0.2l-0.3,0.2l-0.1,0.1l-0.1,0.1c-0.2,0.1-0.4,0.2-0.6,0.4c-0.8,0.4-1.6,0.8-2.5,1
			c-0.8,0.2-1.7,0.3-2.5,0.3c-0.4,0-0.8,0-1.2-0.1c-0.2,0-0.4-0.1-0.6-0.1c-0.2,0-0.4-0.1-0.5-0.1c-0.3-0.1-0.7-0.2-1-0.3
			c-0.3-0.1-0.6-0.2-0.9-0.3c-0.3-0.1-0.5-0.2-0.7-0.4c-0.2-0.1-0.4-0.2-0.6-0.4c-0.1-0.1-0.2-0.1-0.3-0.2c-0.1-0.1-0.2-0.1-0.2-0.2
			c-0.1-0.1-0.3-0.2-0.3-0.2c-0.2-0.1-0.3-0.2-0.3-0.2s0.1,0.1,0.2,0.3c0.1,0.1,0.2,0.2,0.3,0.3c0.1,0.1,0.1,0.1,0.2,0.2
			c0.1,0.1,0.2,0.1,0.2,0.2c0.2,0.1,0.3,0.3,0.5,0.5c0.2,0.2,0.5,0.3,0.7,0.5c0.3,0.2,0.6,0.3,0.9,0.5c0.2,0.1,0.3,0.2,0.5,0.2
			c0.2,0.1,0.3,0.1,0.5,0.2c0.2,0.1,0.4,0.1,0.6,0.2c0.2,0.1,0.4,0.1,0.6,0.2c0.3,0.1,0.6,0.1,1,0.2c-0.2,4.1-3.6,7.3-7.8,7.3
			c-1.3,0-2.6-0.3-3.8-1l-0.8-0.4l-0.3,0.8c-1.1,2.7-3.6,4.4-6.5,4.4c-0.8,0-1.6-0.1-2.4-0.4l-0.6-0.2l-0.4,0.5
			c-1.1,1.6-3,2.5-4.9,2.5c-1.2,0-2.3-0.3-3.3-1l-0.4-0.3l-0.4,0.3c-0.8,0.5-1.8,0.8-2.7,0.8c-0.2,0-0.4-0.1-0.7-0.1
			c-0.4-0.1-0.8-0.3-1.2-0.5c-0.4-0.2-0.8-0.5-1.2-0.7c-0.1-0.1-0.2-0.1-0.3-0.2l-0.1-0.1l-0.1-0.1l-0.3-0.3l-0.1-0.2l-0.1-0.1
			l-0.2-0.3l-0.2-0.3c-0.1-0.1-0.1-0.2-0.2-0.3c-0.1-0.1-0.1-0.2-0.2-0.3c-0.2-0.4-0.3-0.9-0.4-1.3c-0.1-0.2-0.1-0.4-0.1-0.7
			c0-0.2,0-0.4,0-0.6c0-0.2,0-0.4,0-0.6c0-0.1,0-0.2,0-0.3c0-0.1,0-0.2,0.1-0.3c0-0.1,0-0.2,0.1-0.3c0-0.1,0.1-0.2,0.1-0.3
			c0-0.1,0-0.2,0.1-0.2c0-0.1,0.1-0.2,0.1-0.2c0.1-0.3,0.2-0.6,0.3-0.8c0.1-0.2,0.2-0.4,0.3-0.5c0.1-0.1,0.1-0.2,0.1-0.2
			s-0.1,0-0.2,0.1c-0.1,0-0.1,0.1-0.2,0.1c-0.1,0.1-0.2,0.1-0.3,0.2c-0.1,0.1-0.2,0.2-0.3,0.3c-0.1,0.1-0.2,0.2-0.3,0.4
			c-0.1,0.1-0.2,0.3-0.3,0.5c-0.1,0.1-0.1,0.2-0.2,0.3c0,0.1-0.1,0.2-0.1,0.3c0,0.1-0.1,0.2-0.1,0.3c0,0.1-0.1,0.2-0.1,0.3
			c-0.1,0.2-0.1,0.5-0.2,0.7c0,0.1,0,0.3-0.1,0.4c0,0.1,0,0.3,0,0.4c0,0.1,0,0.1,0,0.2c-0.5-0.1-1-0.3-1.4-0.5l-0.7-0.4l-0.4,0.8
			c-1.2,2.6-3.9,4.3-6.8,4.3c-3.7,0-6.9-2.7-7.4-6.4l-0.1-0.4l-0.3-0.2c-0.9-0.5-1.7-1.3-2.2-2.2c0-0.1-0.1-0.2-0.1-0.3
			c-0.1-0.3-0.2-0.6-0.3-1c0-0.2-0.1-0.3-0.1-0.5c0-0.2,0-0.4-0.1-0.5c0-0.2,0-0.4,0-0.5l0-0.1l0,0v0l0-0.1l0-0.3
			c0-0.2,0-0.3,0.1-0.5c0-0.1,0-0.2,0-0.3c0-0.1,0-0.2,0.1-0.3c0-0.2,0.1-0.3,0.1-0.5c0.1-0.2,0.1-0.3,0.2-0.5
			c0.1-0.3,0.3-0.6,0.4-0.9c0.2-0.3,0.3-0.6,0.5-0.8c0.2-0.2,0.3-0.5,0.5-0.7c0.1-0.1,0.2-0.2,0.2-0.3c0.1-0.1,0.1-0.2,0.2-0.2
			c0.1-0.1,0.2-0.2,0.3-0.3c0.1-0.1,0.1-0.1,0.1-0.1s-0.1,0-0.2,0c-0.1,0-0.3,0.1-0.4,0.1c-0.1,0-0.2,0.1-0.3,0.1
			c-0.1,0-0.2,0.1-0.3,0.2c-0.2,0.1-0.5,0.3-0.8,0.5c-0.1,0.1-0.3,0.2-0.4,0.3c-0.1,0.1-0.3,0.3-0.4,0.4c-0.2,0.3-0.5,0.6-0.7,1
			c-0.2,0.4-0.4,0.8-0.5,1.2c0,0.1,0,0.2-0.1,0.2c-2.7-0.8-4.6-3.3-4.6-6.2c0-3.4,2.6-6.2,6-6.4l1.2-0.1l-0.5-1.1
			c-0.5-1.1-0.8-2.2-0.8-3.4c0-4.3,3.5-7.8,7.8-7.8c2,0,3.8,0.7,5.3,2.1l0.6,0.6l0.5-0.7c0.9-1.2,2.4-2,3.9-2c0,0.1,0.1,0.2,0.1,0.3
			c0,0.1,0.1,0.2,0.1,0.2c0,0.1,0.1,0.1,0.1,0.2c0.1,0.1,0.1,0.3,0.2,0.4c0.1,0.3,0.3,0.5,0.4,0.7c0.3,0.4,0.6,0.8,0.8,1.1
			c0.2,0.3,0.5,0.4,0.6,0.6c0.1,0.1,0.2,0.2,0.2,0.2c0,0-0.1-0.1-0.2-0.2c-0.1-0.2-0.3-0.4-0.4-0.7c-0.2-0.3-0.4-0.7-0.5-1.1
			c-0.1-0.2-0.2-0.5-0.2-0.7c-0.1-0.3-0.2-0.5-0.2-0.8c0,0,0,0,0,0l0,0l-0.1-0.9c0,0,0-0.1,0-0.1c0-0.3,0-0.6,0-0.8
			c0.1-0.7,0.2-1.3,0.4-2c0.2-0.7,0.6-1.3,1-1.9c0.1-0.1,0.2-0.3,0.3-0.4c0.1-0.1,0.2-0.3,0.4-0.4l0.1-0.1l0-0.1l0,0l0,0l0.2-0.2
			l0.2-0.2l0.1-0.1c0,0,0.1-0.1,0.1-0.1l0.4-0.3l0.5-0.3c0.2-0.1,0.3-0.2,0.5-0.3l0.2-0.1c0.1,0,0.2-0.1,0.3-0.1
			c0.3-0.1,0.6-0.2,1-0.3c0.4-0.1,0.8-0.1,1.2-0.1c2.5,0,4.8,1.3,6.1,3.5l0.4,0.7l0.7-0.4c0.8-0.5,1.7-0.7,2.6-0.7
			c1.2,0,2.3,0.4,3.2,1.2l0.7,0.6l0.5-0.8c0.9-1.5,2.5-2.4,4.3-2.4c2.2,0,4.1,1.4,4.8,3.5c-0.3,0.2-0.6,0.3-0.8,0.5
			c-0.6,0.4-1.1,0.8-1.5,1.3c-0.4,0.4-0.7,0.9-1,1.3c-0.1,0.2-0.2,0.4-0.3,0.6c0,0.1-0.1,0.2-0.1,0.3c0,0.1-0.1,0.2-0.1,0.3
			c-0.1,0.3-0.2,0.6-0.3,0.7c0,0.2-0.1,0.3-0.1,0.3s0.1-0.1,0.2-0.2c0-0.1,0.1-0.2,0.2-0.3c0.1-0.1,0.2-0.2,0.3-0.4
			c0-0.1,0.1-0.1,0.2-0.2c0.1-0.1,0.1-0.1,0.2-0.2c0.1-0.1,0.1-0.2,0.2-0.2c0.1-0.1,0.1-0.2,0.2-0.2c0.1-0.1,0.2-0.2,0.2-0.2
			c0.1-0.1,0.2-0.2,0.3-0.2c0.2-0.2,0.4-0.3,0.6-0.5c0.4-0.3,0.9-0.7,1.5-0.9c0.5-0.3,1.1-0.5,1.8-0.7c0.6-0.2,1.3-0.3,2-0.3l0.3,0
			l0.1,0l0.1,0l0,0c0.2,0,0.4,0,0.6,0l0.3,0l0.2,0l0.5,0.1c0.7,0.2,1.3,0.3,2,0.6c0.3,0.1,0.6,0.3,0.9,0.5c0.1,0.1,0.3,0.2,0.4,0.3
			c0.1,0.1,0.3,0.2,0.4,0.3c0.2,0.2,0.5,0.4,0.7,0.6c0.1,0.1,0.2,0.2,0.3,0.3c0.1,0.1,0.2,0.2,0.3,0.4c0.1,0.1,0.1,0.1,0.2,0.2
			c0.8,1.3,1.3,2.8,1.3,4.4c0,0.5,0,1-0.1,1.5l-0.2,0.9l0.9,0c5,0.2,8.9,4.3,8.9,9.3c0,1.4-0.3,2.7-0.9,3.9
			C-339.5,275.6-339.5,275.6-339.5,275.7z"/>
		<path id="path6" class="st1" d="M-356.8,294.4c-2.7,0-4.9,2.2-4.9,4.9c0,2.7,2.2,4.9,4.9,4.9c2.7,0,4.9-2.2,4.9-4.9
			C-351.9,296.6-354.1,294.4-356.8,294.4z M-356.2,303.6c-1.9,0-3.5-1.6-3.5-3.5c0-1.9,1.6-3.5,3.5-3.5c1.9,0,3.5,1.6,3.5,3.5
			C-352.7,302-354.2,303.6-356.2,303.6z"/>
		<path id="path8" class="st1" d="M-348.6,304.3c-1.9,0-3.5,1.6-3.5,3.5c0,1.9,1.6,3.5,3.5,3.5c1.9,0,3.5-1.6,3.5-3.5
			C-345.1,305.8-346.6,304.3-348.6,304.3z M-349.2,309.9c-1.2,0-2.2-1-2.2-2.2s1-2.2,2.2-2.2c1.2,0,2.2,1,2.2,2.2
			C-347.1,309-348,309.9-349.2,309.9z"/>
		<path id="path10" class="st1" d="M-344.6,313.4c-1,0-1.9,0.8-1.9,1.9c0,1,0.8,1.9,1.9,1.9c1,0,1.9-0.8,1.9-1.9
			C-342.7,314.3-343.6,313.4-344.6,313.4z M-344.4,316.7c-0.6,0-1.2-0.5-1.2-1.2c0-0.6,0.5-1.2,1.2-1.2s1.2,0.5,1.2,1.2
			C-343.3,316.2-343.8,316.7-344.4,316.7z"/>
	</g>
</g>
</svg>
